# xmcd CD database file
#
# Track frame offsets:
#	150
#	12169
#	22670
#	33583
#	44278
#	52518
#	67236
#	76799
#	89939
#	98929
#	110221
#	123099
#
# Disc length: 1805 seconds
#
# Revision: 0
# Processed by: cddbd v1.5.2PL0 Copyright (c) Steve Scherf et al.
# Submitted via: CDex 1.70beta2
#
DISCID=93070b0c
DTITLE=Various Artist - Street Corner St. Nicks
DYEAR=2007
DGENRE=Rhythmic Soul
TTITLE0=White Christmas - The Drifters
TTITLE1=Rudolph, The Red-Nosed Reindeer - The Cadillacs
TTITLE2=Jingle Jangle - The Penguins
TTITLE3=It's Christmas Once Again - Frankie Lymon
TTITLE4=(It's a) Happy Holiday - The Shells
TTITLE5=I've Got My Love to Keep Me Warm - The Mills Bros
TTITLE6=Merry Twist-mas - The Marcels
TTITLE7=Can This Be Christmas - The Falcons
TTITLE8=Santa Claus Is Coming to Town - The Harmony Grits
TTITLE9=Merry Merry Christmas Baby - Margo Sylvia and the Tune Weavers
TTITLE10=It's Christmas Time - The Five Keys
TTITLE11=After New Year's Eve - The Heartbeats
EXTD=YEAR: 2007
EXTT0=
EXTT1=
EXTT2=
EXTT3=
EXTT4=
EXTT5=
EXTT6=
EXTT7=
EXTT8=
EXTT9=
EXTT10=
EXTT11=
PLAYORDER=
